<?xml version="1.0" encoding="UTF-8" standalone="no"?>
<!DOCTYPE svg PUBLIC "-//W3C//DTD SVG 1.1//EN" "http://www.w3.org/Graphics/SVG/1.1/DTD/svg11.dtd">
<svg version="1.1" xmlns="http://www.w3.org/2000/svg" xmlns:xlink="http://www.w3.org/1999/xlink" preserveAspectRatio="xMidYMid meet" viewBox="-1 -1 532.6190191216185 532.8091774747107" width="528.62" height="528.81"><defs><path d="M159.35 86.21C150.29 103.93 147.63 113 146.83 129.92C145.63 154.7 154.99 173.06 166.95 185.88C178.9 198.71 203.19 210.27 235.04 211.47C247.47 211.91 252.81 212.1 251.05 212.04C252.75 212.1 254.35 212.81 255.53 214.03C254.3 212.77 256.36 214.89 261.69 220.39C274.75 233.99 298.2 243.85 317.65 243.85C352.7 243.85 385.61 217.6 393.74 183.08C395.2 176.56 395.74 169.89 395.34 160.57C394.8 149.11 393.87 144.84 388.67 129.52C381.75 109.4 381.61 109.66 394.27 111C417.32 113.53 439.18 129.92 452.23 154.7C457.7 165.1 462.23 181.35 462.23 190.55C462.23 210.13 452.37 233.05 436.91 249.18C423.85 262.77 386.05 275.83 365.4 275.83C360.47 275.83 368.15 282.22 374.02 288.35C391.21 306.21 396.94 320.73 396.94 345.78C396.94 378.69 383.08 419.47 362.29 447.72C334.58 485.29 291 512.08 243.7 520.47C241.14 520.91 237.54 521.51 232.9 522.26C230.89 522.58 230.75 525.42 232.72 525.94C238.23 527.4 245.13 528.29 253.43 528.6C297.53 530.33 341.1 521.27 379.75 502.22C407.2 488.76 425.98 475.57 447.97 454.51C552.17 354.44 555.9 185.72 456.23 81.25C397.33 24.31 336.31 0 261.82 0C247.3 0 246.63 0.13 239.57 4.4C205.86 24.78 174.68 56.5 159.35 86.21Z" id="b19zBYicT"></path><path d="M5.32 317.47C11.45 347.71 26.24 383.29 43.43 409.41C45.47 412.49 46.65 414.41 46.97 415.16C47.46 416.36 49.25 415.91 49.13 414.62C48.6 408.86 48.32 403.72 48.29 399.2C48.25 390.84 49 383.29 49.39 379.99C53.26 346.41 75.01 320.13 107.78 309.34C133.81 302.01 165.08 308.41 165.08 315.6C165.08 316.27 160.82 320.8 155.49 325.73C124.71 354.91 118.71 390.62 138.17 428.06C150.16 450.85 174.81 467.37 207.06 474.3C222.11 477.5 261.02 478.96 277.01 476.97C297.4 474.43 314.19 467.11 326.98 455.25C342.44 440.72 349.1 426.6 349.23 407.41C349.37 398.48 348.83 395.02 346.57 390.75C341.9 381.56 335.84 379.69 323.65 376.76C295.8 371.3 274.35 356.64 260.36 333.32C253.96 322.8 250.49 310.8 249.43 296.55C249.22 293.19 248.77 289.96 248.07 286.86C247.76 285.48 246.17 284.82 244.98 285.59C240.99 288.13 237.01 290.54 233.04 292.82C214.92 303.08 202.52 304.94 187.07 304.94C180.27 304.94 171.61 304.01 167.21 302.81C156.29 299.88 140.43 291.35 131.9 283.89C112.58 267.1 95.66 234.99 88.46 202.21C85.13 187.02 84.47 158.77 87 143.58C95.66 90.41 127.91 50.3 186.4 19.65C195.6 14.86 203.06 10.33 203.06 9.66C203.06 6.86 197.06 7.79 179.87 13.79C52.89 57.1 -21.07 185.95 5.32 317.47Z" id="a1vXzHNjqc"></path></defs><g><g><use xlink:href="#b19zBYicT" opacity="1" fill="#000000" fill-opacity="1"></use><g><use xlink:href="#b19zBYicT" opacity="1" fill-opacity="0" stroke="#000000" stroke-width="1" stroke-opacity="0"></use></g></g><g><use xlink:href="#a1vXzHNjqc" opacity="1" fill="#000000" fill-opacity="1"></use><g><use xlink:href="#a1vXzHNjqc" opacity="1" fill-opacity="0" stroke="#000000" stroke-width="1" stroke-opacity="0"></use></g></g></g></svg>